<svg width="50" height="50" class="sgvcart" viewBox="0 0 50 50" fill="none" xmlns="http://www.w3.org/2000/svg">
                        <path d="M8.33337 8.33325H13.0218C13.7718 8.33325 14.1467 8.33325 14.418 8.54505C14.6893 8.75684 14.7802 9.12062 14.9621 9.84818L15.9092 13.6367C16.273 15.0918 16.4549 15.8194 16.9974 16.243C17.54 16.6666 18.2899 16.6666 19.7898 16.6666H20.8334" stroke="white" stroke-width="3" stroke-linecap="round"></path>
                        <path d="M37.5 35.4165H15.2749C14.0086 35.4165 13.3755 35.4165 13.0762 35.0012C12.7769 34.5859 12.9771 33.9853 13.3775 32.784L13.6716 31.9016C14.1116 30.5816 14.3317 29.9215 14.8554 29.544C15.3792 29.1665 16.0749 29.1665 17.4664 29.1665H29.1667" stroke="white" stroke-width="3" stroke-linecap="round" stroke-linejoin="round"></path>
                        <path d="M32.9446 29.1665H20.0552C18.4369 29.1665 17.6277 29.1665 17.0682 28.6925C16.5087 28.2186 16.3757 27.4204 16.1096 25.8241L15.1656 20.1597C14.8953 18.5382 14.7602 17.7274 15.2095 17.1969C15.6589 16.6665 16.4808 16.6665 18.1248 16.6665H38.4306C39.881 16.6665 40.6062 16.6665 40.8993 17.1408C41.1924 17.615 40.8681 18.2637 40.2195 19.5609L36.5223 26.9554C35.9844 28.0312 35.7154 28.5691 35.2321 28.8678C34.7488 29.1665 34.1474 29.1665 32.9446 29.1665Z" stroke="white" stroke-width="3" stroke-linecap="round"></path>
                        <ellipse cx="35.4167" cy="41.6666" rx="2.08333" ry="2.08333" fill="white"></ellipse>
                        <ellipse cx="18.75" cy="41.6666" rx="2.08333" ry="2.08333" fill="white"></ellipse>
                      </svg>